<svg width="80" height="80" viewBox="0 0 80 80" fill="none" xmlns="http://www.w3.org/2000/svg">
<path d="M78.4819 24.9537L41.9195 0.578618C40.6715 -0.189353 39.3396 -0.196384 38.0802 0.578618L1.51781 24.9537C0.580311 25.5785 0 26.6948 0 27.8107V52.1857C0 53.3018 0.580311 54.4179 1.51797 55.0429L38.0804 79.4214C39.3284 80.1894 40.6602 80.1964 41.9196 79.4214L78.482 55.0429C79.4195 54.418 80 53.3018 80 52.1857V27.8107C79.9998 26.6948 79.4195 25.5785 78.4819 24.9537ZM43.4374 9.86412L70.3571 27.8107L58.3482 35.8465L43.4374 25.891V9.86412ZM36.5624 9.86412V25.891L21.6517 35.8465L9.64279 27.8107L36.5624 9.86412ZM6.87499 34.2394L15.4911 39.9983L6.87499 45.7572V34.2394ZM36.5624 70.1324L9.64279 52.1858L21.6517 44.15L36.5624 54.1055V70.1324ZM39.9999 48.1233L27.857 39.9983L39.9999 31.8733L52.1429 39.9983L39.9999 48.1233ZM43.4374 70.1324V54.1055L58.3482 44.15L70.3571 52.1858L43.4374 70.1324ZM73.1249 45.7572L64.5088 39.9983L73.1249 34.2394V45.7572Z" fill="#1CAAD9"/>
</svg>
