<svg width="80" height="80" viewBox="0 0 80 80" fill="none" xmlns="http://www.w3.org/2000/svg">
<path d="M79.4127 62.263L41.4192 79.7308C40.9711 79.9084 40.4886 80 40.001 80C39.5134 80 39.0308 79.9084 38.5827 79.7308L0.587304 62.263C-0.1861 61.9058 -0.1861 61.3201 0.587304 60.9612L9.68641 56.7862C10.1352 56.6086 10.6183 56.517 11.1066 56.517C11.5948 56.517 12.078 56.6086 12.5267 56.7862L38.5827 68.7505C39.0306 68.929 39.5132 69.0211 40.001 69.0211C40.4887 69.0211 40.9714 68.929 41.4192 68.7505L67.4752 56.7862C67.9236 56.6085 68.4065 56.5169 68.8944 56.5169C69.3823 56.5169 69.8652 56.6085 70.3136 56.7862L79.4127 60.9701C80.1958 61.3201 80.1958 61.9058 79.4127 62.263ZM79.4127 37.8826L70.3136 33.6987C69.8652 33.521 69.3823 33.4294 68.8944 33.4294C68.4065 33.4294 67.9236 33.521 67.4752 33.6987L41.4192 45.6773C40.9709 45.854 40.4884 45.9452 40.001 45.9452C39.5135 45.9452 39.0311 45.854 38.5827 45.6773L12.5267 33.6987C12.078 33.5211 11.5948 33.4295 11.1066 33.4295C10.6183 33.4295 10.1352 33.5211 9.68641 33.6987L0.587304 37.8826C-0.1861 38.2398 -0.1861 38.8273 0.587304 39.188L38.5827 56.6523C39.0308 56.8298 39.5134 56.9214 40.001 56.9214C40.4886 56.9214 40.9711 56.8298 41.4192 56.6523L79.4127 39.188C80.1958 38.8273 80.1958 38.2415 79.4127 37.8826ZM0.587304 17.5755L38.5808 33.6987C39.4925 34.0291 40.5056 34.0291 41.4173 33.6987L79.4127 17.5755C80.1861 17.2433 80.1861 16.7023 79.4127 16.3719L41.4173 0.250475C40.5064 -0.0834915 39.4917 -0.0834915 38.5808 0.250475L0.587304 16.3719C-0.195768 16.7023 -0.195768 17.2433 0.587304 17.5755Z" fill="#DF1660"/>
</svg>
