<svg width="81" height="81" viewBox="0 0 81 81" fill="none" xmlns="http://www.w3.org/2000/svg">
<path d="M13.3757 76.6981H25.2641V64.8268H13.3757V76.6981ZM3.43909 54.891V64.8268H13.3757V54.891H3.43909ZM78.6409 27.5193C74.9308 15.5512 65.3491 6.01871 53.3801 2.26054C25.9416 -6.30421 0.632324 14.0996 0.632324 40.2616H16.0856C16.0856 23.8418 32.3778 11.1479 49.6539 17.4061C56.0578 19.7126 61.1874 24.8418 63.4941 31.2291C69.8012 48.4876 57.0902 64.7461 40.6851 64.7784V64.8268H40.6367V80.2788C66.8654 80.2788 87.2225 54.9878 78.6409 27.5193ZM40.6851 64.7784V49.407H25.2641V64.8268H40.6367V64.7784H40.6851Z" fill="#1CAAD9"/>
</svg>
