<svg width="80" height="80" viewBox="0 0 80 80" fill="none" xmlns="http://www.w3.org/2000/svg">
<path d="M35 15.0003L37.5 10.0002L42.5 7.50015L37.5 5.0001L35 0L32.5 5.0001L27.5 7.50015L32.5 10.0002L35 15.0003ZM12.5 25.0005L16.6656 16.6675L25 12.5002L16.6656 8.33298L12.5 0L8.33438 8.33298L0 12.5002L8.33438 16.6675L12.5 25.0005ZM67.5 45.0009L63.3344 53.3339L55 57.5011L63.3344 61.6684L67.5 70.0014L71.6656 61.6684L80 57.5011L71.6656 53.3339L67.5 45.0009ZM78.5344 14.7237L65.2766 1.46565C64.3016 0.48751 63.0219 0 61.7422 0C60.4625 0 59.1828 0.48751 58.2062 1.46565L1.46563 58.2074C-0.4875 60.1605 -0.4875 63.3262 1.46563 65.2778L14.7234 78.5359C15.7 79.5125 16.9797 80 18.2578 80C19.5375 80 20.8172 79.5125 21.7937 78.5359L78.5344 21.7926C80.4875 19.8426 80.4875 16.6753 78.5344 14.7237ZM56.1641 31.7912L48.2094 23.8364L61.7406 10.3049L69.6953 18.2597L56.1641 31.7912Z" fill="#5867B6"/>
</svg>
