<svg width="37" height="38" viewBox="0 0 37 38" fill="none" xmlns="http://www.w3.org/2000/svg">
<path d="M18.5002 2.31177C9.09595 2.31177 1.54181 9.8659 1.54181 19.2701C1.54181 28.6743 9.09595 36.2284 18.5002 36.2284C27.9043 36.2284 35.4585 28.6743 35.4585 19.2701C35.4585 9.8659 27.9043 2.31177 18.5002 2.31177ZM13.1043 26.6701C10.9459 26.6701 9.25017 24.9743 9.25017 22.8159C9.25017 20.6576 10.9459 18.9618 13.1043 18.9618C15.2627 18.9618 16.9584 20.6576 16.9584 22.8159C16.9584 24.8201 15.2627 26.6701 13.1043 26.6701ZM14.6459 13.5659C14.6459 11.4076 16.3418 9.71176 18.5002 9.71176C20.6584 9.71176 22.3543 11.4076 22.3543 13.5659C22.3543 15.7243 20.6584 17.4201 18.5002 17.4201C16.3418 17.4201 14.6459 15.5701 14.6459 13.5659ZM23.8959 26.6701C21.7377 26.6701 20.0418 24.9743 20.0418 22.8159C20.0418 20.6576 21.7377 18.9618 23.8959 18.9618C26.0543 18.9618 27.7502 20.6576 27.7502 22.8159C27.7502 24.8201 26.0543 26.6701 23.8959 26.6701Z" fill="#BF31C9"/>
</svg>
