<svg width="37" height="38" viewBox="0 0 37 38" fill="none" xmlns="http://www.w3.org/2000/svg">
<path d="M19.5791 21.0185C20.35 24.7185 20.8125 28.5726 20.8125 32.4269C20.8125 33.8144 19.425 35.0476 17.8834 35.0476H5.24166C3.7 35.0476 2.3125 33.8144 2.3125 32.4269C2.3125 28.5726 2.775 24.7185 3.54584 21.0185L6.16666 8.83936H16.9584L19.5791 21.0185Z" fill="#F57B31"/>
<path fill-rule="evenodd" clip-rule="evenodd" d="M16.9584 6.52677H6.16681V4.21427C6.16681 3.28927 6.78347 2.67261 7.70847 2.67261H15.4168C16.3418 2.67261 16.9584 3.28927 16.9584 4.21427V6.52677Z" fill="#F57B31"/>
<path d="M34.6875 32.4269C34.6875 33.1976 34.3791 33.8144 33.7625 34.2769C33.3 34.7394 32.5291 35.0476 31.6041 35.0476H23.8959C24.2041 34.2769 24.5125 33.3519 24.5125 32.4269C24.5125 28.2644 24.05 24.256 23.2791 20.2476L20.8125 8.83936H30.8334L33.4541 21.0185C34.225 24.7185 34.6875 28.5726 34.6875 32.4269Z" fill="#F57B31"/>
<path fill-rule="evenodd" clip-rule="evenodd" d="M30.8331 4.21427V6.52677H20.8123V4.21427C20.8123 3.75177 20.8123 3.44344 20.6581 2.98094C20.9665 2.82677 21.2748 2.67261 21.5831 2.67261H29.2915C30.0622 2.67261 30.8331 3.44344 30.8331 4.21427Z" fill="#F57B31"/>
</svg>
