<svg width="29" height="29" viewBox="0 0 29 29" fill="none" xmlns="http://www.w3.org/2000/svg">
<path d="M25 6.80334H4V4.47001C4 3.77001 4.46667 3.30334 5.16667 3.30334H23.8333C24.5333 3.30334 25 3.77001 25 4.47001V6.80334Z" fill="#74A5E3"/>
<path d="M26.5168 8.78676L25.1168 23.8368C25.1168 24.4201 24.5335 24.8868 23.9501 24.8868H5.05013C4.4668 24.8868 4.00013 24.4201 3.88346 23.8368L2.48346 8.78676C2.3668 7.38676 3.4168 6.22009 4.8168 6.22009H24.1835C25.5835 6.22009 26.6335 7.38676 26.5168 8.78676Z" fill="#337BD6"/>
<path d="M23.8332 24.8866H20.9165V26.6366H23.8332V24.8866Z" fill="#74A5E3"/>
<path d="M8.08317 24.8866H5.1665V26.6366H8.08317V24.8866Z" fill="#74A5E3"/>
<path d="M25.35 18.4699H25V15.5533H25.35C26.1667 15.5533 26.75 16.2533 26.75 16.9533C26.75 17.7699 26.05 18.4699 25.35 18.4699Z" fill="#337BD6"/>
<path d="M3.65 18.4699H4V15.5533H3.65C2.83333 15.5533 2.25 16.2533 2.25 16.9533C2.25 17.7699 2.95 18.4699 3.65 18.4699Z" fill="#337BD6"/>
<path d="M23.25 12.0533L22.6667 17.8866H6.33333L5.75 12.0533H23.25Z" fill="white"/>
<path d="M22.5504 20.2201L22.4338 21.7368C22.4338 21.8534 22.3171 21.9701 22.2004 21.9701H19.5171L19.6338 20.4534C19.6338 20.3368 19.7504 20.2201 19.8671 20.2201H22.5504Z" fill="white"/>
<path d="M6.4502 20.2201L6.56686 21.7368C6.68353 21.8534 6.8002 21.9701 6.91686 21.9701H9.60019L9.48353 20.4534C9.48353 20.3368 9.36686 20.2201 9.2502 20.2201H6.4502Z" fill="white"/>
</svg>
