<svg width="37" height="38" viewBox="0 0 37 38" fill="none" xmlns="http://www.w3.org/2000/svg">
<path d="M27.9043 20.556C28.2127 21.7894 27.9043 23.331 26.9793 24.256C25.4377 25.7977 22.9709 25.7977 21.5834 24.256C20.0418 22.7144 20.0418 20.2477 21.5834 18.8602C22.6627 17.781 24.0502 17.4727 25.2834 17.9352L32.9918 10.2269C30.0627 5.13936 24.6668 1.90186 18.5002 1.90186C9.09595 1.90186 1.54181 9.45602 1.54181 18.8602C1.54181 20.556 1.85014 22.406 2.31264 23.9477L9.09595 17.1644C8.78767 15.931 9.09595 14.3894 10.0209 13.4644C11.5627 11.9227 14.0293 11.9227 15.4168 13.4644C16.9584 15.006 16.9584 17.4727 15.4168 18.8602C14.3377 19.9394 12.9502 20.2477 11.7168 19.7852L4.00847 27.4935C6.93764 32.581 12.3334 35.8185 18.5002 35.8185C27.9043 35.8185 35.4585 28.2644 35.4585 18.8602C35.4585 17.1644 35.1502 15.3144 34.6877 13.7727L27.9043 20.556Z" fill="#337BD6"/>
</svg>
