<svg width="45" height="47" viewBox="0 0 45 47" fill="none" xmlns="http://www.w3.org/2000/svg">
<path d="M42.75 34.075V12.925C42.75 10.9745 41.2425 9.40002 39.375 9.40002H7.85254C5.98504 9.40002 4.47754 10.9745 4.47754 12.925V34.075C4.47754 36.0255 5.98504 37.6 7.85254 37.6H39.375C41.2425 37.6 42.75 36.0255 42.75 34.075ZM39.8025 12.6665C40.545 13.442 40.14 14.241 39.735 14.6405L30.6 23.3825L39.375 32.9235C39.645 33.2525 39.825 33.7695 39.51 34.122C39.2175 34.498 38.5425 34.4745 38.25 34.2395L28.4175 25.474L23.6025 30.0565L18.81 25.474L8.97754 34.2395C8.68504 34.4745 8.01004 34.498 7.71754 34.122C7.40254 33.7695 7.58254 33.2525 7.85254 32.9235L16.6275 23.3825L7.49254 14.6405C7.08754 14.241 6.68254 13.442 7.42504 12.6665C8.16754 11.891 8.93254 12.267 9.56254 12.831L23.6025 24.675L37.665 12.831C38.295 12.267 39.06 11.891 39.8025 12.6665Z" fill="#1CAAD9"/>
</svg>
