<svg width="30" height="25" viewBox="0 0 30 25" fill="none" xmlns="http://www.w3.org/2000/svg">
<g clip-path="url(#clip0_125_1013)">
<path d="M20.9918 14.1666C21.2311 13.6337 21.3525 13.069 21.3501 12.5C21.3501 11.2365 20.7478 10.0248 19.6757 9.13139C18.6037 8.23799 17.1496 7.73608 15.6334 7.73608C14.959 7.73674 14.2902 7.83787 13.6584 8.03469L15.0001 9.18747C15.2041 9.16028 15.4102 9.14635 15.6168 9.14581C16.6888 9.14394 17.7182 9.49563 18.4801 10.1241C19.242 10.7525 19.6746 11.6066 19.6834 12.5C19.6828 12.6721 19.666 12.8439 19.6334 13.0139L20.9918 14.1666Z" fill="black"/>
<path d="M28.5749 12.1737C25.7666 7.8473 20.8416 5.22925 15.3916 5.22925C13.9077 5.23215 12.4338 5.43139 11.0249 5.81953L12.3666 6.94453C13.3548 6.7317 14.3709 6.62206 15.3916 6.61814C20.0832 6.61814 24.3499 8.79869 26.8916 12.4723C25.9592 13.8352 24.7232 15.0373 23.2499 16.014L24.4332 17.0001C26.1383 15.8538 27.5544 14.4377 28.5999 12.8334L28.8166 12.5001L28.5749 12.1737Z" fill="black"/>
<path d="M4.0584 4.01397L7.77506 7.11119C5.42583 8.37169 3.50582 10.1152 2.20007 12.1737L1.9834 12.5001L2.20007 12.8334C5.0084 17.1598 9.9334 19.7779 15.3834 19.7779C17.5106 19.7775 19.6102 19.3763 21.5251 18.6042L25.6917 22.0765L27.1501 21.0348L5.4834 2.97925L4.0584 4.01397ZM12.1834 10.7848L17.7251 15.4029C17.0989 15.7258 16.3781 15.8988 15.6417 15.9029C15.1067 15.9029 14.5769 15.8147 14.0829 15.6434C13.5889 15.4722 13.1404 15.2212 12.7632 14.905C12.386 14.5887 12.0876 14.2134 11.8851 13.8007C11.6826 13.388 11.5801 12.946 11.5834 12.5001C11.5928 11.8935 11.8002 11.3006 12.1834 10.7848ZM10.9751 9.77786C10.1954 10.6941 9.83 11.8107 9.94349 12.9299C10.057 14.0492 10.6421 15.0988 11.5952 15.8931C12.5482 16.6873 13.8078 17.1749 15.1509 17.2694C16.494 17.364 17.8339 17.0595 18.9334 16.4098L20.2667 17.5209C18.7232 18.0707 17.062 18.3542 15.3834 18.3542C10.6917 18.3542 6.42506 16.1737 3.8834 12.5001C5.10315 10.7002 6.85984 9.19328 8.9834 8.12508L10.9751 9.77786Z" fill="black"/>
</g>
<defs>
<clipPath id="clip0_125_1013">
<rect width="30" height="25" fill="white"/>
</clipPath>
</defs>
</svg>
