<svg width="81" height="81" viewBox="0 0 81 81" fill="none" xmlns="http://www.w3.org/2000/svg">
<path d="M70.2349 30.5336V12.6039C70.2349 11.2773 69.7083 10.007 68.7708 9.06794L61.6989 1.99763C60.7614 1.06013 59.4895 0.533569 58.163 0.533569H15.2349C12.4739 0.533569 10.2349 2.77263 10.2349 5.53357V30.5336C4.71143 30.5336 0.234863 35.0101 0.234863 40.5336V58.0336C0.234863 59.4148 1.35361 60.5336 2.73486 60.5336H10.2349V75.5336C10.2349 78.2945 12.4739 80.5336 15.2349 80.5336H65.2349C67.9958 80.5336 70.2349 78.2945 70.2349 75.5336V60.5336H77.7349C79.1161 60.5336 80.2349 59.4148 80.2349 58.0336V40.5336C80.2349 35.0101 75.7583 30.5336 70.2349 30.5336ZM60.2349 70.5336H20.2349V55.5336H60.2349V70.5336ZM60.2349 35.5336H20.2349V10.5336H50.2349V18.0336C50.2349 19.4148 51.3536 20.5336 52.7349 20.5336H60.2349V35.5336ZM67.7349 46.7836C65.6646 46.7836 63.9849 45.1039 63.9849 43.0336C63.9849 40.9617 65.6646 39.2836 67.7349 39.2836C69.8052 39.2836 71.4849 40.9617 71.4849 43.0336C71.4849 45.1039 69.8052 46.7836 67.7349 46.7836Z" fill="#FF9E3A"/>
</svg>
