<svg width="37" height="38" viewBox="0 0 37 38" fill="none" xmlns="http://www.w3.org/2000/svg">
<g clip-path="url(#clip0_1_87)">
<mask id="mask0_1_87" style="mask-type:alpha" maskUnits="userSpaceOnUse" x="0" y="0" width="37" height="38">
<path d="M37 0.360107H0V37.3601H37V0.360107Z" fill="#C4C4C4"/>
</mask>
<g mask="url(#mask0_1_87)">
<path d="M34.6517 2.04199V5.61187C34.6517 22.7955 25.0612 30.601 13.2324 30.601H9.83738C10.2158 25.2248 11.8901 21.9709 16.2597 18.1047C18.4087 16.2037 18.2266 15.1059 17.1682 15.736C9.8785 20.0734 6.25862 25.9352 6.09797 35.2954L6.09261 35.9559H2.52274C2.52274 33.523 2.72979 31.315 3.14032 29.2944C2.72979 26.9848 2.52274 23.8504 2.52274 19.8914C2.52274 10.0332 10.5139 2.04199 20.3721 2.04199C23.942 2.04199 27.5119 3.82693 34.6517 2.04199Z" fill="#9E533C"/>
</g>
</g>
<defs>
<clipPath id="clip0_1_87">
<rect width="37" height="37" fill="white" transform="translate(0 0.360107)"/>
</clipPath>
</defs>
</svg>
