<svg width="81" height="81" viewBox="0 0 81 81" fill="none" xmlns="http://www.w3.org/2000/svg">
<path d="M69.6917 46.0376L70.1829 46.4582L39.2604 20.3932C38.6237 19.8479 37.496 19.8167 36.7502 20.3153L26.3275 27.1081C25.5635 27.6066 25.4908 28.4635 26.1274 29.0088L38.5146 39.0266C39.1694 39.5719 40.3154 39.6031 41.0612 39.1045L41.0794 39.089C41.8251 38.5904 42.9711 38.6216 43.6259 39.1669L58.9052 51.8333C59.5601 52.3786 59.4873 53.2355 58.7415 53.734L41.7888 65.2631C41.0248 65.7772 39.8788 65.7461 39.2058 65.2008L11.5757 42.2205C10.939 41.6752 9.81128 41.6441 9.04732 42.1426L0.71644 47.58C-0.0475267 48.0785 -0.138475 48.9354 0.498164 49.4807L38.46 80.0328C38.46 80.0328 39.8061 81.0922 41.6069 79.9081L77.6224 54.3728C78.35 53.8742 78.4228 53.0173 77.7498 52.472L69.6917 46.0376ZM79.6051 33.044L41.3158 0.856074C41.043 0.669116 39.8606 -0.000816822 38.3509 1.02745L0.73463 26.2824C-0.029337 26.7809 -0.138475 27.6378 0.516354 28.1831L8.21059 34.6799L39.4423 60.4022C40.1153 60.9475 41.2794 60.9786 42.0434 60.4645L51.1746 54.4195L51.1201 54.3728L52.5207 53.438C53.2846 52.9394 53.3574 52.0825 52.6844 51.5373L42.2981 43.0618C41.6432 42.5165 40.4791 42.4854 39.7151 42.9839L39.6969 42.9995C38.933 43.4981 37.787 43.4825 37.114 42.9372L19.9066 28.6349C19.2517 28.0896 19.3427 27.2483 20.1066 26.7342L36.8775 15.5946C37.6233 15.096 38.7511 15.1272 39.4059 15.6725L68.5822 40.4444C69.2552 40.9897 70.4011 41.0209 71.1469 40.5223L79.4778 34.9447C80.2236 34.4462 80.2781 33.5893 79.6051 33.044Z" fill="#26713B"/>
</svg>
