<svg width="21" height="21" viewBox="0 0 21 21" fill="none" xmlns="http://www.w3.org/2000/svg">
<path d="M10.5 0.438477C4.94316 0.438477 0.4375 4.94414 0.4375 10.501C0.4375 16.0578 4.94316 20.5635 10.5 20.5635C16.0568 20.5635 20.5625 16.0578 20.5625 10.501C20.5625 4.94414 16.0568 0.438477 10.5 0.438477ZM10.5 18.8564C5.88652 18.8564 2.14453 15.1145 2.14453 10.501C2.14453 5.8875 5.88652 2.14551 10.5 2.14551C15.1135 2.14551 18.8555 5.8875 18.8555 10.501C18.8555 15.1145 15.1135 18.8564 10.5 18.8564ZM11.5714 9.97988L11.0009 9.84736V6.83086C11.8544 6.94766 12.3822 7.48223 12.4721 8.13809C12.4833 8.22793 12.5597 8.29307 12.6495 8.29307H13.658C13.7636 8.29307 13.8467 8.20098 13.8377 8.09541C13.7007 6.69609 12.5484 5.79766 11.0099 5.64268V4.9082C11.0099 4.80937 10.929 4.72852 10.8302 4.72852H10.199C10.1002 4.72852 10.0193 4.80937 10.0193 4.9082V5.64941C8.4291 5.80439 7.18477 6.68262 7.18477 8.32227C7.18477 9.84062 8.30332 10.5729 9.47803 10.8536L10.0328 10.9951V14.2003C9.04004 14.0678 8.48301 13.5377 8.36846 12.8234C8.35498 12.7381 8.27861 12.6752 8.19102 12.6752H7.15332C7.04775 12.6752 6.96465 12.765 6.97363 12.8706C7.07471 14.106 8.01133 15.2425 10.0104 15.3885V16.0938C10.0104 16.1926 10.0912 16.2734 10.19 16.2734H10.8279C10.9268 16.2734 11.0076 16.1926 11.0076 16.0915L11.0031 15.3795C12.7618 15.2245 14.0196 14.2834 14.0196 12.5943C14.0174 11.0355 13.0269 10.3393 11.5714 9.97988ZM10.0306 9.61602C9.90479 9.58008 9.79922 9.54639 9.69365 9.50371C8.93447 9.22969 8.58184 8.78721 8.58184 8.2167C8.58184 7.40137 9.19951 6.93643 10.0306 6.83086V9.61602ZM11.0009 14.207V11.204C11.0705 11.2242 11.1334 11.2399 11.1985 11.2534C12.2609 11.5769 12.6181 12.0261 12.6181 12.7156C12.6181 13.5938 11.9577 14.1217 11.0009 14.207Z" fill="#1CAAD9"/>
</svg>
