<svg width="21" height="18" viewBox="0 0 21 18" fill="none" xmlns="http://www.w3.org/2000/svg">
<path d="M20.8458 14.0101L10.8725 17.9404C10.7549 17.9804 10.6283 18.001 10.5003 18.001C10.3723 18.001 10.2456 17.9804 10.128 17.9404L0.154167 14.0101C-0.0488514 13.9298 -0.0488514 13.798 0.154167 13.7172L2.54268 12.7779C2.66049 12.7379 2.78731 12.7173 2.91548 12.7173C3.04364 12.7173 3.17046 12.7379 3.28827 12.7779L10.128 15.4698C10.2455 15.51 10.3722 15.5307 10.5003 15.5307C10.6283 15.5307 10.755 15.51 10.8725 15.4698L17.7122 12.7779C17.83 12.7379 17.9567 12.7173 18.0848 12.7173C18.2129 12.7173 18.3396 12.7379 18.4573 12.7779L20.8458 13.7193C21.0514 13.798 21.0514 13.9298 20.8458 14.0101ZM20.8458 8.52456L18.4573 7.58318C18.3396 7.54321 18.2129 7.5226 18.0848 7.5226C17.9567 7.5226 17.83 7.54321 17.7122 7.58318L10.8725 10.2784C10.7549 10.3181 10.6282 10.3386 10.5003 10.3386C10.3723 10.3386 10.2457 10.3181 10.128 10.2784L3.28827 7.58318C3.17046 7.54322 3.04364 7.52262 2.91548 7.52262C2.78731 7.52262 2.66049 7.54322 2.54268 7.58318L0.154167 8.52456C-0.0488514 8.60492 -0.0488514 8.73711 0.154167 8.81827L10.128 12.7477C10.2456 12.7877 10.3723 12.8083 10.5003 12.8083C10.6283 12.8083 10.7549 12.7877 10.8725 12.7477L20.8458 8.81827C21.0514 8.73711 21.0514 8.60532 20.8458 8.52456ZM0.154167 3.95546L10.1275 7.58318C10.3668 7.65752 10.6327 7.65752 10.872 7.58318L20.8458 3.95546C21.0489 3.88073 21.0489 3.75898 20.8458 3.68465L10.872 0.0573333C10.6329 -0.017809 10.3666 -0.017809 10.1275 0.0573333L0.154167 3.68465C-0.0513891 3.75898 -0.0513891 3.88073 0.154167 3.95546Z" fill="#DF1660"/>
</svg>
