<svg width="20" height="20" viewBox="0 0 20 20" fill="none" xmlns="http://www.w3.org/2000/svg">
<g clip-path="url(#clip0_125_2046)">
<path fill-rule="evenodd" clip-rule="evenodd" d="M10 10.8343C6.77834 10.8343 4.16667 13.446 4.16667 16.6676V18.3343C4.16667 18.7946 3.79357 19.1676 3.33333 19.1676C2.8731 19.1676 2.5 18.7946 2.5 18.3343V16.6676C2.5 12.5255 5.85786 9.16765 10 9.16765C14.1421 9.16765 17.5 12.5255 17.5 16.6676V18.3343C17.5 18.7946 17.1269 19.1676 16.6667 19.1676C16.2064 19.1676 15.8333 18.7946 15.8333 18.3343V16.6676C15.8333 13.446 13.2217 10.8343 10 10.8343Z" fill="#1CAAD9"/>
<path fill-rule="evenodd" clip-rule="evenodd" d="M10 9.16764C11.8409 9.16764 13.3333 7.67525 13.3333 5.8343C13.3333 3.99336 11.8409 2.50097 10 2.50097C8.15905 2.50097 6.66667 3.99336 6.66667 5.8343C6.66667 7.67525 8.15905 9.16764 10 9.16764ZM10 10.8343C12.7614 10.8343 15 8.59573 15 5.8343C15 3.07288 12.7614 0.834305 10 0.834305C7.23858 0.834305 5 3.07288 5 5.8343C5 8.59573 7.23858 10.8343 10 10.8343Z" fill="#1CAAD9"/>
</g>
<defs>
<clipPath id="clip0_125_2046">
<rect width="20" height="20" fill="white" transform="translate(0 0.000976562)"/>
</clipPath>
</defs>
</svg>
