<svg width="22" height="21" viewBox="0 0 22 21" fill="none" xmlns="http://www.w3.org/2000/svg">
<path d="M21.5825 6.55132L11.5278 0.152864C11.1847 -0.0487286 10.8184 -0.0505743 10.4721 0.152864L0.417398 6.55132C0.159586 6.71534 0 7.00836 0 7.3013V13.6997C0 13.9927 0.159586 14.2857 0.417441 14.4497L10.4721 20.8491C10.8153 21.0507 11.1816 21.0525 11.5279 20.8491L21.5826 14.4497C21.8404 14.2857 22 13.9927 22 13.6997V7.3013C22 7.00836 21.8404 6.71534 21.5825 6.55132ZM11.9453 2.59031L19.3482 7.3013L16.0457 9.4107L11.9453 6.79738V2.59031ZM10.0547 2.59031V6.79738L5.95421 9.4107L2.65177 7.3013L10.0547 2.59031ZM1.89062 8.98881L4.26004 10.5005L1.89062 12.0122V8.98881ZM10.0547 18.4107L2.65177 13.6998L5.95421 11.5904L10.0547 14.2037V18.4107ZM11 12.6333L7.66067 10.5005L11 8.36771L14.3393 10.5005L11 12.6333ZM11.9453 18.4107V14.2037L16.0457 11.5904L19.3482 13.6998L11.9453 18.4107ZM20.1093 12.0122L17.7399 10.5005L20.1093 8.98881V12.0122Z" fill="#1CAAD9"/>
</svg>
