<svg width="22" height="21" viewBox="0 0 22 21" fill="none" xmlns="http://www.w3.org/2000/svg">
<path d="M3.50442 20.061H6.77373V16.9448H3.50442V20.061ZM0.771859 14.3367V16.9448H3.50442V14.3367H0.771859ZM21.4524 7.15161C20.4321 4.00999 17.7971 1.5077 14.5056 0.521181C6.96004 -1.72707 0 3.62893 0 10.4965H4.24966C4.24966 6.18626 8.73 2.85411 13.4809 4.4969C15.242 5.10236 16.6526 6.44876 17.287 8.12542C19.0215 12.6558 15.5259 16.9236 11.0145 16.9321V16.9448H11.0012V21.001C18.2141 21.001 23.8123 14.3621 21.4524 7.15161ZM11.0145 16.9321V12.8971H6.77373V16.9448H11.0012V16.9321H11.0145Z" fill="#1CAAD9"/>
</svg>
