<svg width="37" height="38" viewBox="0 0 37 38" fill="none" xmlns="http://www.w3.org/2000/svg">
<path d="M30.8334 3.85327H6.16673C4.4709 3.85327 3.0834 5.24077 3.0834 6.9366V31.6033C3.0834 33.2991 4.4709 34.6866 6.16673 34.6866H30.8334C32.5292 34.6866 33.9167 33.2991 33.9167 31.6033V6.9366C33.9167 5.24077 32.5292 3.85327 30.8334 3.85327ZM26.6709 13.5658C26.6709 14.4908 26.0542 15.1074 25.1292 15.1074H20.5042V23.5866H25.1292C26.0542 23.5866 26.6709 24.2033 26.6709 25.1283V27.4408H10.4834V25.1283C10.4834 24.2033 11.1001 23.5866 12.0251 23.5866H16.6501V15.1074H12.0251C11.1001 15.1074 10.4834 14.4908 10.4834 13.5658V11.2533H26.6709V13.5658Z" fill="#D6434C"/>
</svg>
