<svg width="40" height="38" viewBox="0 0 40 38" fill="none" xmlns="http://www.w3.org/2000/svg">
<path d="M20.0005 0C13.4601 0 8.1001 5.0768 8.1001 11.2731C8.1001 13.6739 8.9073 15.9053 10.2733 17.7392L18.5481 31.3291C19.7069 32.7674 20.4773 32.4942 21.4409 31.2531L30.5681 16.4977C30.7521 16.1808 30.8969 15.8433 31.0229 15.4987C31.6021 14.1578 31.8999 12.7224 31.8997 11.2731C31.9001 5.0768 26.5417 0 20.0005 0ZM20.0005 5.282C23.5229 5.282 26.3237 7.93668 26.3237 11.2731C26.3237 14.6095 23.5229 17.263 20.0005 17.263C16.4785 17.263 13.6765 14.6099 13.6765 11.2731C13.6765 7.93668 16.4785 5.28238 20.0005 5.28238V5.282Z" fill="#1CAAD9"/>
<path d="M27.5652 18.5851L27.546 18.6329C27.552 18.6185 27.5568 18.6037 27.5628 18.5892L27.5652 18.5851ZM13.6024 26.2417C7.952 27.0002 4 28.8147 4 31.4857C4 35.0835 10.6032 38 20 38C29.3968 38 36 35.0835 36 31.4857C36 28.8147 32.0484 27.0002 26.3984 26.2417L25.6156 27.5078C29.874 28.0691 32.8 29.2486 32.8 30.6174C32.8 32.5364 27.0692 34.0917 20 34.0917C12.9308 34.0917 7.2 32.5364 7.2 30.6174C7.1996 29.2532 10.1064 28.0748 14.378 27.5113C14.12 27.0879 13.8608 26.6654 13.6024 26.2417Z" fill="#1CAAD9"/>
</svg>
