<svg width="37" height="37" viewBox="0 0 37 37" fill="none" xmlns="http://www.w3.org/2000/svg">
<g clip-path="url(#clip0_1_78)">
<mask id="mask0_1_78" style="mask-type:alpha" maskUnits="userSpaceOnUse" x="0" y="0" width="37" height="37">
<path d="M37 0H0V37H37V0Z" fill="#C4C4C4"/>
</mask>
<g mask="url(#mask0_1_78)">
<path d="M18.6387 1.68188C27.999 1.68188 35.5957 9.27857 35.5957 18.6388C35.5957 27.9991 27.999 35.5957 18.6387 35.5957C9.27851 35.5957 1.68182 27.9991 1.68182 18.6388C1.68182 9.27857 9.27851 1.68188 18.6387 1.68188ZM18.6387 10.1604C13.9587 10.1604 10.1603 13.9587 10.1603 18.6388C10.1603 23.3189 13.9587 27.1173 18.6387 27.1173C21.7249 27.1173 24.4261 25.4673 25.9099 23.0001L23.0018 21.257C22.5441 22.0194 21.8946 22.6485 21.1179 23.0817C20.3413 23.5148 19.4648 23.7367 18.5756 23.7255C17.6864 23.7142 16.8157 23.47 16.0503 23.0173C15.285 22.5646 14.6517 21.9192 14.2135 21.1454C13.7753 20.3716 13.5476 19.4965 13.5532 18.6072C13.5587 17.718 13.7972 16.8457 14.2449 16.0775C14.6927 15.3092 15.334 14.6717 16.1049 14.2285C16.8759 13.7853 17.7495 13.552 18.6387 13.5517C20.4921 13.5517 22.1149 14.542 23.0035 16.0223L25.9099 14.2758C25.1565 13.0203 24.0909 11.9813 22.8166 11.26C21.5423 10.5388 20.1029 10.1599 18.6387 10.1604Z" fill="#D6434C"/>
</g>
</g>
<defs>
<clipPath id="clip0_1_78">
<rect width="37" height="37" fill="white"/>
</clipPath>
</defs>
</svg>
