<svg width="29" height="29" viewBox="0 0 29 29" fill="none" xmlns="http://www.w3.org/2000/svg">
<path d="M26.2835 9.85122L25.5835 18.7179L17.6502 22.9179L14.5002 24.5512L11.3502 22.9179L3.41684 18.7179L2.71684 9.85122C2.60017 8.91789 3.06684 7.98455 4.00017 7.63455L10.0668 4.48455L13.4502 2.73455C14.1502 2.38455 14.9668 2.38455 15.6668 2.73455L19.0502 4.48455L25.1168 7.63455C25.9335 8.10122 26.4002 8.91789 26.2835 9.85122Z" fill="#299E63"/>
<path d="M15.0838 6.46789L10.6924 4.15735L6.63184 6.26737L11.0005 8.56789L17.8838 12.1846C18.2338 12.4179 18.4671 12.7679 18.4671 13.2346V19.0679L20.5671 14.8679L22.3171 16.9679L22.5505 11.1346C22.5505 10.6679 22.3171 10.2012 21.9671 10.0846L15.0838 6.46789Z" fill="white"/>
<path d="M25.5837 18.7179L25.467 20.9346C25.3503 21.7512 24.8837 22.4512 24.1837 22.8012L18.9337 25.4846L15.5503 27.2346C15.2003 27.4679 14.8503 27.4679 14.5003 27.4679C14.1503 27.4679 13.8003 27.3512 13.4503 27.2346L10.067 25.4846L4.81699 22.8012C4.11699 22.4512 3.65033 21.7512 3.53366 20.9346L3.41699 18.7179L11.3503 22.9179L14.5003 24.5512L17.6503 22.9179L25.5837 18.7179Z" fill="#6EBD95"/>
</svg>
