<svg width="37" height="38" viewBox="0 0 37 38" fill="none" xmlns="http://www.w3.org/2000/svg">
<path d="M16.9584 9.24927C19.425 12.7951 20.8125 16.9576 20.8125 21.2743V32.8368C20.8125 34.2243 19.425 35.4576 17.8834 35.4576H5.24166C3.7 35.4576 2.3125 34.2243 2.3125 32.8368V21.2743C2.3125 16.9576 3.7 12.7951 6.16666 9.24927H16.9584Z" fill="#299E63"/>
<path fill-rule="evenodd" clip-rule="evenodd" d="M16.9584 6.93668H6.16681V4.62418C6.16681 3.69918 6.78347 3.08252 7.70847 3.08252H15.4168C16.3418 3.08252 16.9584 3.69918 16.9584 4.62418V6.93668Z" fill="#299E63"/>
<path d="M34.6876 21.2743V32.8368C34.6876 34.2243 33.3001 35.4576 31.7584 35.4576H24.0501C24.3584 34.6868 24.6667 33.7618 24.6667 32.8368V21.2743C24.6667 16.9576 23.5876 12.9493 21.4292 9.24927H30.8334C33.3001 12.7951 34.6876 16.9576 34.6876 21.2743Z" fill="#299E63"/>
<path fill-rule="evenodd" clip-rule="evenodd" d="M30.8331 4.62418V6.93668H20.8123V4.62418C20.8123 4.16168 20.8123 3.85336 20.6581 3.39086C20.9665 3.23668 21.2748 3.08252 21.5831 3.08252H29.2915C30.2165 3.08252 30.8331 3.85336 30.8331 4.62418Z" fill="#299E63"/>
</svg>
