<svg width="80" height="80" viewBox="0 0 80 80" fill="none" xmlns="http://www.w3.org/2000/svg">
<path d="M79.2674 11.3389L68.6609 0.732436C67.6844 -0.244145 66.1015 -0.244145 65.1249 0.732436L61.5889 4.26844C60.6124 5.24502 60.6124 6.82787 61.5889 7.80445L49.609 19.7844C42.3308 16.7062 33.6088 18.1078 27.6759 24.0391L2.92857 48.7865C-0.976189 52.6913 -0.976189 59.0242 2.92857 62.929L17.071 77.0714C20.9757 80.9762 27.3087 80.9762 31.2134 77.0714L55.9623 52.3225C61.8936 46.3911 63.2952 37.6675 60.217 30.3893L72.1969 18.4093C73.1735 19.3859 74.7564 19.3859 75.7329 18.4093L79.2689 14.8733C80.2439 13.8983 80.2439 12.3155 79.2674 11.3389ZM28.0024 66.14L13.86 51.9975L32.9291 32.9284L47.0715 47.0708L28.0024 66.14Z" fill="#4DA761"/>
</svg>
