<svg width="29" height="29" viewBox="0 0 29 29" fill="none" xmlns="http://www.w3.org/2000/svg">
<mask id="mask0_1_142" style="mask-type:luminance" maskUnits="userSpaceOnUse" x="2" y="2" width="25" height="26">
<path d="M26.5353 2.72009H2.4646V27.2201H26.5353V2.72009Z" fill="white"/>
</mask>
<g mask="url(#mask0_1_142)">
<path d="M11.2917 7.38676V5.63676H17.7083V7.38676H20.625V5.05342C20.625 4.43458 20.3791 3.84109 19.9415 3.40351C19.504 2.96592 18.9105 2.72009 18.2917 2.72009H10.7083C10.0895 2.72009 9.49604 2.96592 9.05845 3.40351C8.62087 3.84109 8.375 4.43458 8.375 5.05342V7.38676H11.2917Z" fill="#F8A573"/>
<path d="M24.2019 7.38685H4.7979C4.4742 7.38689 4.15399 7.45427 3.85775 7.58473C3.5615 7.71519 3.29567 7.90588 3.0771 8.14464C2.85852 8.3834 2.69203 8.66502 2.58818 8.97161C2.48434 9.2782 2.44541 9.60306 2.4739 9.92551L3.29058 19.1422C6.73695 20.997 10.5896 21.9679 14.5034 21.9679C18.4172 21.9679 22.2699 20.997 25.7162 19.1422L26.5329 9.92551C26.5614 9.60247 26.5223 9.27705 26.418 8.96997C26.3138 8.6629 26.1466 8.38091 25.9273 8.14204C25.708 7.90317 25.4412 7.71266 25.1441 7.58263C24.8471 7.4526 24.5261 7.38591 24.2019 7.38685Z" fill="#F57B31"/>
<path d="M22.4915 22.4612L22.3294 24.3034H6.67037L6.50823 22.4612C5.46856 22.1173 4.45481 21.6994 3.47485 21.2106L3.81672 25.0921C3.86805 25.6731 4.1351 26.2137 4.56526 26.6076C4.99541 27.0015 5.55748 27.22 6.14073 27.2201H22.8683C23.4516 27.22 24.0137 27.0015 24.4438 26.6076C24.874 26.2137 25.141 25.6731 25.1923 25.0921L25.5353 21.2106C24.5519 21.6996 23.5347 22.1175 22.4915 22.4612Z" fill="#F8A573"/>
<path d="M16.8332 12.3451H12.1665V17.0118H16.8332V12.3451Z" fill="white"/>
</g>
</svg>
