<svg width="44" height="36" viewBox="0 0 44 36" fill="none" xmlns="http://www.w3.org/2000/svg">
<g clip-path="url(#clip0_126_2972)">
<path d="M12.5711 3.66752C14.6666 4.91702 16.2983 6.62252 17.6916 8.25452L18.5019 9.22052L19.2664 10.143C19.6488 10.6001 19.8123 11.1563 19.7258 11.7057C19.6392 12.2551 19.3087 12.7592 18.7971 13.122L15.2203 15.2955C15.0474 15.3976 14.9258 15.5476 14.8779 15.7175C14.83 15.8874 14.8592 16.0658 14.9599 16.2195C15.7703 17.424 17.2113 19.218 18.8613 20.568C20.5131 21.918 22.8084 23.175 24.3833 23.913C24.5807 24.0037 24.8131 24.0291 25.0327 23.9839C25.2523 23.9387 25.4424 23.8264 25.5639 23.67L27.8923 20.7705C28.3203 20.3053 28.9518 19.9936 29.6544 19.9008C30.357 19.808 31.0763 19.9412 31.6616 20.2725L32.8771 20.961C35.1486 22.251 37.5888 23.7165 39.4551 25.671C39.7511 25.9827 39.9394 26.3537 40.0003 26.7453C40.0613 27.1368 39.9926 27.5346 39.8016 27.897C38.2671 30.8265 34.3841 33.321 30.3453 33.1995L29.7953 33.174L29.3681 33.144L28.8951 33.099L28.3799 33.042L27.8208 32.967C27.7228 32.9526 27.6251 32.9376 27.5274 32.922L26.9114 32.814C26.8037 32.7947 26.6961 32.7747 26.5888 32.754L25.9178 32.613L25.2119 32.448L24.4749 32.253C21.0906 31.314 16.7951 29.469 12.3878 25.863C7.98225 22.2585 5.72725 18.744 4.57959 15.975L4.34125 15.372L4.13959 14.7945L3.96725 14.2455L3.82425 13.7265C3.78295 13.564 3.74445 13.401 3.70875 13.2375L3.61709 12.78L3.54375 12.3585L3.49059 11.9715L3.45392 11.622L3.42459 11.172C3.27609 7.87802 6.35792 4.67852 9.92192 3.42902C10.3509 3.27747 10.8206 3.21977 11.2851 3.26158C11.7495 3.30339 12.1927 3.44328 12.5711 3.66752ZM27.4853 9.06002L27.6979 9.07952C29.0324 9.27211 30.2581 9.80543 31.1994 10.603C32.1406 11.4006 32.7491 12.4216 32.9376 13.5195C33.0048 13.8993 32.8915 14.2857 32.6211 14.5992C32.3508 14.9128 31.9438 15.1296 31.4839 15.2051C31.0241 15.2806 30.5464 15.2091 30.1491 15.0052C29.7518 14.8013 29.465 14.4806 29.3479 14.109L29.3058 13.9365C29.232 13.5062 29.0075 13.1025 28.6594 12.7743C28.3113 12.4461 27.8544 12.2074 27.3441 12.087L27.0599 12.0345C26.5996 11.9678 26.1878 11.7596 25.9088 11.4527C25.6298 11.1457 25.5046 10.7632 25.559 10.3832C25.6133 10.0033 25.843 9.65471 26.201 9.40874C26.5591 9.16278 27.0185 9.03803 27.4853 9.06002ZM27.4999 4.50002C30.4173 4.50002 33.2152 5.44823 35.2781 7.13606C37.341 8.82388 38.4999 11.1131 38.4999 13.5C38.4994 13.8823 38.3205 14.2501 37.9997 14.5281C37.6789 14.8061 37.2405 14.9734 36.774 14.9958C36.3076 15.0182 35.8482 14.894 35.4899 14.6486C35.1316 14.4032 34.9013 14.0552 34.8461 13.6755L34.8333 13.5C34.8339 11.9766 34.126 10.5102 32.8532 9.39831C31.5805 8.28646 29.8382 7.61259 27.9803 7.51352L27.4999 7.50002C27.0137 7.50002 26.5474 7.34198 26.2036 7.06068C25.8597 6.77937 25.6666 6.39784 25.6666 6.00002C25.6666 5.60219 25.8597 5.22066 26.2036 4.93936C26.5474 4.65805 27.0137 4.50002 27.4999 4.50002Z" fill="#1CAAD9"/>
</g>
<defs>
<clipPath id="clip0_126_2972">
<rect width="44" height="36" fill="white"/>
</clipPath>
</defs>
</svg>
