<svg width="16" height="16" viewBox="0 0 16 16" fill="none" xmlns="http://www.w3.org/2000/svg">
<path fill-rule="evenodd" clip-rule="evenodd" d="M3.52851 3.52851C3.78886 3.26816 4.21097 3.26816 4.47132 3.52851L7.99992 7.05711L11.5285 3.52851C11.7889 3.26816 12.211 3.26816 12.4713 3.52851C12.7317 3.78886 12.7317 4.21097 12.4713 4.47132L8.94273 7.99992L12.4713 11.5285C12.7317 11.7889 12.7317 12.211 12.4713 12.4713C12.211 12.7317 11.7889 12.7317 11.5285 12.4713L7.99992 8.94273L4.47132 12.4713C4.21097 12.7317 3.78886 12.7317 3.52851 12.4713C3.26816 12.211 3.26816 11.7889 3.52851 11.5285L7.05711 7.99992L3.52851 4.47132C3.26816 4.21097 3.26816 3.78886 3.52851 3.52851Z" fill="#777E91"/>
</svg>
